<?xml version="1.0" encoding="UTF-8"?>
<svg id="Layer_2" data-name="Layer 2" xmlns="http://www.w3.org/2000/svg" viewBox="0 0 1338.69 223.36">
  <defs>
    <style>
      .cls-1 {
        fill: #fff;
      }
    </style>
  </defs>
  <g id="Layer_2-2" data-name="Layer 2">
    <g id="Layer_2-2" data-name="Layer 2-2">
      <g id="Layer_1-2" data-name="Layer 1-2">
        <g>
          <g>
            <g>
              <polygon class="cls-1" points="0 223.36 223.36 0 269.89 46.53 93.07 223.36 0 223.36"/>
              <polygon class="cls-1" points="150.46 223.36 375.36 0 421.9 46.53 347.45 119.43 446.72 223.36 356.75 223.36 300.91 165.97 245.07 223.36 150.46 223.36"/>
            </g>
            <polygon class="cls-1" points="600.27 223.36 451.37 72.9 403.28 120.99 505.66 223.36 600.27 223.36"/>
          </g>
          <g>
            <g>
              <path class="cls-1" d="M753.83,147.35h-15.51l-24.82-116.33v116.33h-13.96V1.55h23.27l24.82,116.33L770.89,1.55h23.27V147.35h-15.51V29.47c-1.55,0-24.82,117.88-24.82,117.88Z"/>
              <path class="cls-1" d="M828.28,1.55V147.35h-15.51V1.55h15.51Z"/>
              <path class="cls-1" d="M913.59,37.23v12.41h-15.51v-13.96c0-12.41-4.65-21.72-17.06-21.72s-17.06,7.76-17.06,21.72V113.23c0,12.41,6.2,21.72,17.06,21.72s17.06-7.76,17.06-21.72v-18.61h15.51v18.61c0,21.72-10.86,37.23-32.57,37.23s-32.57-15.51-32.57-37.23V37.23c0-21.72,10.86-37.23,32.57-37.23s32.57,15.51,32.57,37.23Z"/>
              <path class="cls-1" d="M964.78,1.55c23.27,0,32.57,12.41,32.57,34.12v10.86c0,15.51-6.2,26.37-18.61,29.47,13.96,3.1,18.61,15.51,18.61,31.02v23.27c0,6.2,0,12.41,3.1,17.06h-17.06c-1.55-4.65-3.1-7.76-3.1-18.61v-21.72c0-17.06-7.76-21.72-21.72-21.72h-12.41v62.04h-15.51V1.55h34.12Zm-3.1,68.25c12.41,0,20.16-4.65,20.16-20.16v-12.41c0-12.41-4.65-20.16-17.06-20.16h-15.51v54.29l12.41-1.55h0Z"/>
              <path class="cls-1" d="M1017.52,37.23c0-21.72,10.86-37.23,34.12-37.23s34.12,13.96,34.12,37.23V113.23c0,21.72-10.86,37.23-34.12,37.23s-34.12-15.51-34.12-37.23V37.23Zm15.51,76c0,13.96,6.2,21.72,17.06,21.72s17.06-7.76,17.06-21.72V35.68c0-12.41-6.2-21.72-17.06-21.72s-17.06,7.76-17.06,21.72V113.23h0Z"/>
              <path class="cls-1" d="M1124.54,147.35V15.51h-26.37V0h69.8V15.51h-26.37V147.35h-17.06Z"/>
              <path class="cls-1" d="M1234.67,66.7v13.96h-35.68v52.74h43.43v15.51h-60.49V1.55h60.49v15.51h-43.43v49.64h35.68Z"/>
              <path class="cls-1" d="M1298.27,83.76l-24.82,63.59h-15.51l29.47-76L1259.49,0h17.06l21.72,58.94L1321.53,0h15.51l-27.92,71.35,29.47,76h-17.06l-23.27-63.59h0Z"/>
            </g>
            <g>
              <path class="cls-1" d="M702.65,178.38v44.98h-4.65v-44.98h4.65Z"/>
              <path class="cls-1" d="M741.42,223.36h-4.65v-44.98h7.76l10.86,32.57v-32.57h4.65v44.98h-4.65l-12.41-37.23-1.55,37.23h0Z"/>
              <path class="cls-1" d="M800.36,223.36v-40.33h-9.31v-4.65h21.72v4.65h-7.76v40.33h-4.65Z"/>
              <path class="cls-1" d="M862.41,198.54v3.1h-10.86v15.51h13.96v4.65h-18.61v-44.98h18.61v4.65h-13.96v15.51c-1.55,1.55,10.86,1.55,10.86,1.55Z"/>
              <path class="cls-1" d="M908.94,178.38c6.2,0,9.31,3.1,9.31,9.31v4.65c0,4.65-1.55,7.76-6.2,9.31,4.65,1.55,6.2,4.65,6.2,9.31v12.41h-4.65v-12.41c0-4.65-3.1-6.2-6.2-6.2h-3.1v18.61h-4.65v-44.98h9.31Zm-1.55,20.16c3.1,0,6.2-1.55,6.2-6.2v-4.65c0-3.1-1.55-6.2-4.65-6.2h-4.65v17.06c-1.55,0,3.1,0,3.1,0Z"/>
              <path class="cls-1" d="M957.03,223.36h-4.65v-44.98h6.2l10.86,32.57v-32.57h4.65v44.98h-4.65l-10.86-37.23-1.55,37.23h0Z"/>
              <path class="cls-1" d="M1014.42,214.05l-1.55,9.31h-4.65l9.31-44.98h6.2l9.31,44.98h-4.65l-1.55-9.31c-1.55,0-12.41,0-12.41,0Zm0-4.65h9.31l-4.65-24.82-4.65,24.82h0Z"/>
              <path class="cls-1" d="M1070.26,223.36v-40.33h-7.76v-4.65h21.72v4.65h-7.76v40.33h-6.2Z"/>
              <path class="cls-1" d="M1119.89,178.38v44.98h-4.65v-44.98h4.65Z"/>
              <path class="cls-1" d="M1155.57,189.23c0-6.2,3.1-10.86,9.31-10.86s10.86,4.65,10.86,10.86v23.27c0,6.2-3.1,10.86-10.86,10.86s-9.31-4.65-9.31-10.86v-23.27Zm4.65,23.27c0,4.65,1.55,6.2,6.2,6.2s6.2-3.1,6.2-6.2v-23.27c0-3.1-1.55-6.2-6.2-6.2s-6.2,3.1-6.2,6.2v23.27Z"/>
              <path class="cls-1" d="M1214.51,223.36h-4.65v-44.98h6.2l10.86,32.57v-32.57h4.65v44.98h-6.2l-10.86-37.23v37.23h0Z"/>
              <path class="cls-1" d="M1270.35,214.05l-1.55,9.31h-4.65l9.31-44.98h7.76l9.31,44.98h-4.65l-1.55-9.31c-1.55,0-13.96,0-13.96,0Zm1.55-4.65h9.31l-4.65-24.82-4.65,24.82h0Z"/>
              <path class="cls-1" d="M1321.53,223.36v-44.98h4.65v40.33h12.41v4.65c1.55,0-17.06,0-17.06,0Z"/>
            </g>
          </g>
          <rect class="cls-1" x="637.5" width="12.41" height="223.36"/>
        </g>
      </g>
    </g>
  </g>
</svg>